<svg width="81" height="33" viewBox="0 0 81 33" fill="none" xmlns="http://www.w3.org/2000/svg">
<path d="M6.92559 0.5L0.545898 10.764V0.5H6.92559Z" fill="#A07758"/>
<path d="M9.30446 0.5V32.4933H0.545898V14.5633L9.28537 0.5H9.30446Z" fill="#A07758"/>
<path d="M60.6277 25.88V0.5H51.8691V32.5H60.6277H79.0353L80.0912 25.88H60.6277Z" fill="#A07758"/>
<path d="M47.6402 9.67756C45.7129 4.11704 40.618 0.5 35.0271 0.5H18.4513L12.8604 9.79228H32.7945C36.2801 9.79228 39.2314 12.721 39.2569 16.419V16.581C39.2251 20.279 36.2865 23.2145 32.7945 23.2145H21.6125V13.8345H12.8604V32.5H35.0271C40.5735 32.5 45.6302 28.9369 47.5956 23.4507C47.6211 23.3697 47.6529 23.2887 47.6783 23.2077C48.3907 21.109 48.7787 18.8551 48.7787 16.4933C48.7787 14.1381 48.3907 11.8842 47.6783 9.78553C47.6656 9.75179 47.6529 9.71805 47.6402 9.67756Z" fill="#A07758"/>
</svg>
