<svg width="60" height="24" viewBox="0 0 60 24" fill="none" xmlns="http://www.w3.org/2000/svg">
<path d="M4.81209 0L0 7.69802V0H4.81209Z" fill="#F6F3EC"/>
<path d="M6.60643 0V23.9949H0V10.5474L6.59204 0H6.60643Z" fill="#F6F3EC"/>
<path d="M45.3193 19.035V0H38.7129V24H45.3193H59.2039L60.0003 19.035H45.3193Z" fill="#F6F3EC"/>
<path d="M35.5219 6.88317C34.0682 2.71278 30.2252 0 26.0081 0H13.5053L9.28809 6.96921H24.3241C26.9532 6.96921 29.1793 9.16575 29.1985 11.9393V12.0607C29.1745 14.8342 26.958 17.0358 24.3241 17.0358H15.8897V10.0008H9.28809V24H26.0081C30.1917 24 34.0058 21.3277 35.4883 17.213C35.5075 17.1523 35.5315 17.0915 35.5507 17.0308C36.088 15.4568 36.3807 13.7663 36.3807 11.9949C36.3807 10.2286 36.088 8.53817 35.5507 6.96415C35.5411 6.93884 35.5315 6.91354 35.5219 6.88317Z" fill="#F6F3EC"/>
</svg>
